<svg xmlns="http://www.w3.org/2000/svg" viewBox="0 0 120 120">
<polygon points="38.0,58.0 41.9,68.6 53.2,69.1 44.4,76.1 47.4,86.9 38.0,80.7 28.6,86.9 31.6,76.1 22.8,69.1 34.1,68.6" fill="#d9a83f" fill-opacity="1"/><polygon points="66.0,20.0 71.4,34.5 86.9,35.2 74.8,44.9 78.9,59.8 66.0,51.2 53.1,59.8 57.2,44.9 45.1,35.2 60.6,34.5" fill="#d9a83f" fill-opacity="1"/><polygon points="88.0,66.0 91.0,73.9 99.4,74.3 92.8,79.6 95.1,87.7 88.0,83.0 80.9,87.7 83.2,79.6 76.6,74.3 85.0,73.9" fill="#d9a83f" fill-opacity="1"/>
</svg>
