<svg xmlns="http://www.w3.org/2000/svg" viewBox="0 0 120 120">

    <path d="M60 66 V100" fill="none" stroke="#8a8a52" stroke-width="2.6" stroke-linecap="round" stroke-linejoin="round"/>
    <path d="M60 84 c-8 -2 -12 -8 -12 -14" fill="none" stroke="#8a8a52" stroke-width="2.2" stroke-linecap="round" stroke-linejoin="round"/>
    <path d="M60 90 c8 -2 12 -8 12 -14" fill="none" stroke="#8a8a52" stroke-width="2.2" stroke-linecap="round" stroke-linejoin="round"/>
    <path d="M48 52 c0 -10 5 -18 12 -22 c7 4 12 12 12 22 c0 9 -5 16 -12 16 c-7 0 -12 -7 -12 -16 z" fill="#b3282d" fill-opacity="0.25" stroke="#b3282d" stroke-width="2.6" stroke-linecap="round" stroke-linejoin="round"/>
    <path d="M54 48 c2 -8 4 -12 6 -14 m6 16 c-1 -7 -3 -11 -6 -14" fill="none" stroke="#b3282d" stroke-width="2" stroke-linecap="round" stroke-linejoin="round"/>
</svg>
