<svg xmlns="http://www.w3.org/2000/svg" viewBox="0 0 120 120">

    <path d="M38 44 l-6 -14 12 4 M82 44 l6 -14 -12 4" fill="none" stroke="#4d2126" stroke-width="2.6" stroke-linecap="round" stroke-linejoin="round"/>
    <path d="M32 46 c6 -8 18 -12 28 -12 c10 0 22 4 28 12 c-2 16 -12 30 -28 30 c-16 0 -26 -14 -28 -30 z" fill="none" stroke="#4d2126" stroke-width="2.6" stroke-linecap="round" stroke-linejoin="round"/>
    <circle cx="48" cy="52" r="2.6" fill="#4d2126"/>
    <circle cx="72" cy="52" r="2.6" fill="#4d2126"/>
    <path d="M56 64 c2 2 6 2 8 0 M60 64 v-4" fill="none" stroke="#4d2126" stroke-width="2" stroke-linecap="round" stroke-linejoin="round"/>
    <path d="M84 78 c10 2 16 8 14 16 c-8 2 -14 -4 -14 -16 z" fill="#d9a83f" fill-opacity="0.35" stroke="#4d2126" stroke-width="2.2" stroke-linejoin="round"/>
</svg>
