<svg xmlns="http://www.w3.org/2000/svg" viewBox="0 0 120 120">

    <path d="M46 30 c8 -4 16 -4 22 0 l-4 18 c12 -4 26 -2 34 6 c-2 6 -8 10 -14 10 c4 4 4 10 0 14 c-10 2 -20 -2 -26 -10 l-14 -8 z" fill="#d9a83f" fill-opacity="0.25" stroke="#d9a83f" stroke-width="2.6" stroke-linecap="round" stroke-linejoin="round"/>
    <path d="M52 38 c4 -2 8 -2 12 0 M66 54 c8 -2 16 0 22 4" fill="none" stroke="#4d2126" stroke-width="1.8" stroke-linecap="round" stroke-linejoin="round" stroke-dasharray="1 6"/>
    <path d="M28 22 c3 2 5 5 5 9 M22 30 c4 0 8 2 10 5" fill="none" stroke="#d9a83f" stroke-width="2" stroke-linecap="round" stroke-linejoin="round"/>
</svg>
