<svg xmlns="http://www.w3.org/2000/svg" viewBox="0 0 120 120">

    <path d="M36 70 h48 M40 70 v22 h40 v-22" fill="none" stroke="#4d2126" stroke-width="2.6" stroke-linecap="round" stroke-linejoin="round"/>
    <path d="M40 78 h40 M40 86 h40" fill="none" stroke="#4d2126" stroke-width="1.6" stroke-linecap="round" stroke-linejoin="round" stroke-dasharray="2 5"/>
    <path d="M36 70 l10 -22 h28 l10 22" fill="none" stroke="#4d2126" stroke-width="2.6" stroke-linecap="round" stroke-linejoin="round"/>
    <path d="M60 48 v12 M54 60 h12" fill="none" stroke="#4d2126" stroke-width="2.2" stroke-linecap="round" stroke-linejoin="round"/>
    <circle cx="60" cy="38" r="5" fill="none" stroke="#4d2126" stroke-width="2.2" stroke-linecap="round" stroke-linejoin="round"/>
    <path d="M60 43 v5" fill="none" stroke="#4d2126" stroke-width="2.2" stroke-linecap="round" stroke-linejoin="round"/>
    <path d="M60 9 L62.1 13.9 L67 16 L62.1 18.1 L60 23 L57.9 18.1 L53 16 L57.9 13.9 Z" fill="#d9a83f"/><path d="M88 26 L89.2 28.8 L92 30 L89.2 31.2 L88 34 L86.8 31.2 L84 30 L86.8 28.8 Z" fill="#d9a83f"/>
</svg>
