<svg xmlns="http://www.w3.org/2000/svg" viewBox="0 0 120 120">

    <path d="M42 46 l-3 -18 10 7 11 -13 11 13 10 -7 -3 18 z" fill="none" stroke="#4d2126" stroke-width="2.6" stroke-linecap="round" stroke-linejoin="round"/>
    <circle cx="60" cy="60" r="10" fill="none" stroke="#4d2126" stroke-width="2.6" stroke-linecap="round" stroke-linejoin="round"/>
    <circle cx="56" cy="58" r="1.4" fill="#4d2126"/>
    <circle cx="64" cy="58" r="1.4" fill="#4d2126"/>
    <path d="M56 64 c2 2 6 2 8 0" fill="none" stroke="#4d2126" stroke-width="1.8" stroke-linecap="round" stroke-linejoin="round"/>
    <path d="M40 96 c2 -16 10 -24 20 -24 c10 0 18 8 20 24" fill="#b3282d" fill-opacity="0.2" stroke="#b3282d" stroke-width="2.6" stroke-linecap="round" stroke-linejoin="round"/>
    <path d="M46 84 c4 2 8 2 12 0 M62 88 c4 2 8 2 12 0" fill="none" stroke="#b3282d" stroke-width="1.6" stroke-linecap="round" stroke-linejoin="round" stroke-dasharray="1 5"/>
</svg>
