<svg xmlns="http://www.w3.org/2000/svg" viewBox="0 0 120 120">

    <path d="M30 48 C46 57 74 57 90 48 L93 74 C74 83 46 83 27 74 Z" fill="#b3282d" fill-opacity="0.18" stroke="#b3282d" stroke-width="2.6" stroke-linecap="round" stroke-linejoin="round"/>
    <path d="M30 48 L13 43 l5 12 -7 10 16 9" fill="none" stroke="#b3282d" stroke-width="2.2" stroke-linecap="round" stroke-linejoin="round"/>
    <path d="M90 48 L107 43 l-5 12 7 10 -16 9" fill="none" stroke="#b3282d" stroke-width="2.2" stroke-linecap="round" stroke-linejoin="round"/>
    <path d="M40 64 c12 4 28 4 40 -1" fill="none" stroke="#4d2126" stroke-width="1.8" stroke-linecap="round" stroke-linejoin="round" stroke-dasharray="1 6"/>
    <path d="M60 25 L61.5 28.5 L65 30 L61.5 31.5 L60 35 L58.5 31.5 L55 30 L58.5 28.5 Z" fill="#d9a83f"/>
</svg>
