<svg xmlns="http://www.w3.org/2000/svg" viewBox="0 0 120 120">

    <path d="M30 100 C42 78 54 54 84 24" fill="none" stroke="#8a8a52" stroke-width="2.6" stroke-linecap="round" stroke-linejoin="round"/>
    <path d="M42 78 c-11 -3 -18 1 -20 10 c9 4 17 -1 20 -10 z" fill="#8a8a52" fill-opacity="0.35" stroke="#8a8a52" stroke-width="2" stroke-linejoin="round"/>
    <path d="M48 68 c4 -11 11 -15 20 -13 c0 10 -9 15 -20 13 z" fill="#8a8a52" fill-opacity="0.35" stroke="#8a8a52" stroke-width="2" stroke-linejoin="round"/>
    <path d="M58 54 c-11 -2 -18 2 -19 11 c9 3 16 -2 19 -11 z" fill="#8a8a52" fill-opacity="0.35" stroke="#8a8a52" stroke-width="2" stroke-linejoin="round"/>
    <path d="M66 44 c3 -11 10 -16 19 -14 c1 9 -8 15 -19 14 z" fill="#8a8a52" fill-opacity="0.35" stroke="#8a8a52" stroke-width="2" stroke-linejoin="round"/>
    <circle cx="88" cy="20" r="3.4" fill="#d9a83f"/>
    <circle cx="79" cy="30" r="2.6" fill="#d9a83f"/>
</svg>
