<svg xmlns="http://www.w3.org/2000/svg" viewBox="0 0 120 120">

    <path d="M30 76 a12 12 0 0 1 2 -24 a16 16 0 0 1 30 -9 a14 14 0 0 1 24 9 a11 11 0 0 1 2 24 z" fill="none" stroke="#4d2126" stroke-width="2.6" stroke-linecap="round" stroke-linejoin="round"/>
    <polygon points="46.0,53.0 47.7,57.6 52.7,57.8 48.8,60.9 50.1,65.7 46.0,62.9 41.9,65.7 43.2,60.9 39.3,57.8 44.3,57.6" fill="#d9a83f" fill-opacity="1"/><polygon points="66.0,45.0 68.2,50.9 74.6,51.2 69.6,55.2 71.3,61.3 66.0,57.8 60.7,61.3 62.4,55.2 57.4,51.2 63.8,50.9" fill="#d9a83f" fill-opacity="1"/><polygon points="82.0,59.0 83.2,62.3 86.8,62.5 84.0,64.6 84.9,68.0 82.0,66.1 79.1,68.0 80.0,64.6 77.2,62.5 80.8,62.3" fill="#d9a83f" fill-opacity="1"/>
    <path d="M24 87 L25.5 90.5 L29 92 L25.5 93.5 L24 97 L22.5 93.5 L19 92 L22.5 90.5 Z" fill="#d9a83f"/><path d="M96 86 L97.2 88.8 L100 90 L97.2 91.2 L96 94 L94.8 91.2 L92 90 L94.8 88.8 Z" fill="#d9a83f"/>
</svg>
