<svg xmlns="http://www.w3.org/2000/svg" viewBox="0 0 120 120">

    <path d="M18 74 C28 94 46 104 60 104 C74 104 92 94 102 74" fill="none" stroke="#8a8a52" stroke-width="2.4" stroke-linecap="round" stroke-linejoin="round"/>
    <path d="M34 90 c-8 -6 -14 -6 -18 -1 M86 90 c8 -6 14 -6 18 -1 M50 100 c-4 -8 -9 -11 -15 -10" fill="none" stroke="#8a8a52" stroke-width="2" stroke-linecap="round" stroke-linejoin="round"/>
    <circle cx="26.0" cy="73.0" r="4.3" fill="#b3282d" fill-opacity="0.45" stroke="#b3282d" stroke-width="1.6"/><circle cx="32.7" cy="77.8" r="4.3" fill="#b3282d" fill-opacity="0.45" stroke="#b3282d" stroke-width="1.6"/><circle cx="30.1" cy="85.7" r="4.3" fill="#b3282d" fill-opacity="0.45" stroke="#b3282d" stroke-width="1.6"/><circle cx="21.9" cy="85.7" r="4.3" fill="#b3282d" fill-opacity="0.45" stroke="#b3282d" stroke-width="1.6"/><circle cx="19.3" cy="77.8" r="4.3" fill="#b3282d" fill-opacity="0.45" stroke="#b3282d" stroke-width="1.6"/><circle cx="26" cy="80" r="3.1" fill="#d9a83f"/><circle cx="60.0" cy="94.0" r="5.0" fill="#e0745a" fill-opacity="0.45" stroke="#e0745a" stroke-width="1.6"/><circle cx="67.6" cy="99.5" r="5.0" fill="#e0745a" fill-opacity="0.45" stroke="#e0745a" stroke-width="1.6"/><circle cx="64.7" cy="108.5" r="5.0" fill="#e0745a" fill-opacity="0.45" stroke="#e0745a" stroke-width="1.6"/><circle cx="55.3" cy="108.5" r="5.0" fill="#e0745a" fill-opacity="0.45" stroke="#e0745a" stroke-width="1.6"/><circle cx="52.4" cy="99.5" r="5.0" fill="#e0745a" fill-opacity="0.45" stroke="#e0745a" stroke-width="1.6"/><circle cx="60" cy="102" r="3.6" fill="#d9a83f"/><circle cx="94.0" cy="73.0" r="4.3" fill="#b3282d" fill-opacity="0.45" stroke="#b3282d" stroke-width="1.6"/><circle cx="100.7" cy="77.8" r="4.3" fill="#b3282d" fill-opacity="0.45" stroke="#b3282d" stroke-width="1.6"/><circle cx="98.1" cy="85.7" r="4.3" fill="#b3282d" fill-opacity="0.45" stroke="#b3282d" stroke-width="1.6"/><circle cx="89.9" cy="85.7" r="4.3" fill="#b3282d" fill-opacity="0.45" stroke="#b3282d" stroke-width="1.6"/><circle cx="87.3" cy="77.8" r="4.3" fill="#b3282d" fill-opacity="0.45" stroke="#b3282d" stroke-width="1.6"/><circle cx="94" cy="80" r="3.1" fill="#d9a83f"/>
    <path d="M60 77 L61.5 80.5 L65 82 L61.5 83.5 L60 87 L58.5 83.5 L55 82 L58.5 80.5 Z" fill="#d9a83f"/>
</svg>
